solid OpenSCAD_Model
  facet normal -0 0 1
    outer loop
      vertex 0 0.723 0.245
      vertex 0.2 0 0.245
      vertex 0.2 0.723 0.245
    endloop
  endfacet
  facet normal 0 0 1
    outer loop
      vertex 0.2 0 0.245
      vertex 0 0.723 0.245
      vertex 0 0 0.245
    endloop
  endfacet
  facet normal 0 0 -1
    outer loop
      vertex 0 0 0
      vertex 0.2 0.723 0
      vertex 0.2 0 0
    endloop
  endfacet
  facet normal -0 0 -1
    outer loop
      vertex 0.2 0.723 0
      vertex 0 0 0
      vertex 0 0.723 0
    endloop
  endfacet
  facet normal 0 -1 0
    outer loop
      vertex 0 0 0
      vertex 0.2 0 0.245
      vertex 0 0 0.245
    endloop
  endfacet
  facet normal 0 -1 -0
    outer loop
      vertex 0.2 0 0.245
      vertex 0 0 0
      vertex 0.2 0 0
    endloop
  endfacet
  facet normal 1 -0 0
    outer loop
      vertex 0.2 0 0.245
      vertex 0.2 0.723 0
      vertex 0.2 0.723 0.245
    endloop
  endfacet
  facet normal 1 0 0
    outer loop
      vertex 0.2 0.723 0
      vertex 0.2 0 0.245
      vertex 0.2 0 0
    endloop
  endfacet
  facet normal 0 1 -0
    outer loop
      vertex 0.2 0.723 0
      vertex 0 0.723 0.245
      vertex 0.2 0.723 0.245
    endloop
  endfacet
  facet normal 0 1 0
    outer loop
      vertex 0 0.723 0.245
      vertex 0.2 0.723 0
      vertex 0 0.723 0
    endloop
  endfacet
  facet normal -1 0 0
    outer loop
      vertex 0 0 0
      vertex 0 0.723 0.245
      vertex 0 0.723 0
    endloop
  endfacet
  facet normal -1 -0 0
    outer loop
      vertex 0 0.723 0.245
      vertex 0 0 0
      vertex 0 0 0.245
    endloop
  endfacet
endsolid OpenSCAD_Model
